<svg xmlns="http://www.w3.org/2000/svg" viewBox="0 0 1200 630" width="1200" height="630">
    <defs>
        <linearGradient id="bgGrad" x1="0%" y1="0%" x2="100%" y2="100%">
            <stop offset="0%" stop-color="#1a1209"/>
            <stop offset="100%" stop-color="#0a0704"/>
        </linearGradient>
        
        <!-- Subtle noise filter -->
        <filter id="noise">
            <feTurbulence type="fractalNoise" baseFrequency="0.75" numOctaves="3" stitchTiles="stitch"/>
            <feColorMatrix type="matrix" values="1 0 0 0 0, 0 1 0 0 0, 0 0 1 0 0, 0 0 0 0.1 0" />
        </filter>
        
        <radialGradient id="vinylShine" cx="50%" cy="50%" r="50%" fx="30%" fy="30%">
            <stop offset="0%" stop-color="#ffffff" stop-opacity="0.1"/>
            <stop offset="50%" stop-color="#ffffff" stop-opacity="0"/>
            <stop offset="100%" stop-color="#000000" stop-opacity="0.4"/>
        </radialGradient>
    </defs>

    <!-- Background -->
    <rect width="1200" height="630" fill="url(#bgGrad)"/>
    <rect width="1200" height="630" fill="url(#noise)" style="mix-blend-mode: overlay;" opacity="0.8"/>

    <!-- Abstract Sound Waves / Grooves in background -->
    <path d="M-100,500 Q 200,400 600,600 T 1300,450" fill="none" stroke="#9c3211" stroke-width="2" opacity="0.2"/>
    <path d="M-100,520 Q 200,420 600,620 T 1300,470" fill="none" stroke="#c8c3b4" stroke-width="1" opacity="0.1"/>
    
    <!-- Vinyl Graphic on Right side -->
    <g transform="translate(1000, 315)">
        <!-- Outer edge -->
        <circle cx="0" cy="0" r="450" fill="#110c06" stroke="#241c15" stroke-width="8"/>
        
        <circle cx="0" cy="0" r="450" fill="url(#vinylShine)"/>
        
        <!-- Grooves -->
        <circle cx="0" cy="0" r="390" fill="none" stroke="#2a2016" stroke-width="6"/>
        <circle cx="0" cy="0" r="310" fill="none" stroke="#2a2016" stroke-width="6"/>
        <circle cx="0" cy="0" r="230" fill="none" stroke="#2a2016" stroke-width="6"/>
        <circle cx="0" cy="0" r="170" fill="none" stroke="#2a2016" stroke-width="6"/>
        
        <!-- Label -->
        <circle cx="0" cy="0" r="120" fill="#9c3211"/>
        <circle cx="0" cy="0" r="110" fill="none" stroke="#1a1209" stroke-width="3" stroke-dasharray="10 8"/>
        
        <!-- Label Text -->
        <text x="0" y="-60" font-family="Arial, sans-serif" font-size="20" font-weight="bold" fill="#1a1209" text-anchor="middle" letter-spacing="4">33 ⅓ RPM</text>
        <text x="0" y="75" font-family="Arial, sans-serif" font-size="20" font-weight="bold" fill="#1a1209" text-anchor="middle" letter-spacing="6">STEREO</text>
        
        <!-- Center hole -->
        <circle cx="0" cy="0" r="24" fill="#0a0704"/>
        <circle cx="0" cy="0" r="26" fill="none" stroke="#c8c3b4" stroke-width="2" opacity="0.3"/>
    </g>

    <!-- Content / Typography -->
    <g transform="translate(100, 250)">
        <!-- Tagline -->
        <text x="0" y="-40" fill="#9c3211" font-family="Arial, sans-serif" font-size="24" font-weight="bold" letter-spacing="4">СЦЕНА ОТ МУЗИКАНТИ ЗА МУЗИКАНТИ</text>
        
        <!-- Main Title -->
        <text x="0" y="30" fill="#c8c3b4" font-family="Arial, sans-serif" font-size="96" font-weight="900" letter-spacing="2">DRIFT BAR</text>
        <text x="0" y="110" fill="#c8c3b4" font-family="Arial, sans-serif" font-size="64" font-weight="700" letter-spacing="6" opacity="0.9">PLOVDIV</text>
        
        <!-- Line separator -->
        <rect x="0" y="150" width="100" height="6" fill="#9c3211"/>
        
        <!-- Subtitles -->
        <text x="0" y="210" fill="#c8c3b4" font-family="Arial, sans-serif" font-size="32" font-weight="500" opacity="0.8">Жива Музика &amp; Авторски Коктейли</text>
        
        <!-- Address + Pin icon -->
        <!-- Map Pin -->
        <g transform="translate(0, 240)">
            <path d="M12,2C8.13,2 5,5.13 5,9c0,5.25 7,13 7,13s7,-7.75 7,-13c0,-3.87 -3.13,-7 -7,-7zm0,9.5c-1.38,0 -2.5,-1.12 -2.5,-2.5s1.12,-2.5 2.5,-2.5 2.5,1.12 2.5,2.5 -1.12,2.5 -2.5,2.5z" fill="#9c3211" transform="scale(1.2)"/>
            <text x="35" y="22" fill="#c8c3b4" font-family="Arial, sans-serif" font-size="24" font-weight="400" opacity="0.6">ул. Сливница 2а, Пловдив</text>
        </g>
    </g>
</svg>
